<?xml version="1.0" standalone="no"?>
<!DOCTYPE svg PUBLIC "-//W3C//DTD SVG 20010904//EN"
 "http://www.w3.org/TR/2001/REC-SVG-20010904/DTD/svg10.dtd">
<svg version="1.0" xmlns="http://www.w3.org/2000/svg"
 width="663.000000pt" height="663.000000pt" viewBox="0 0 663.000000 663.000000"
 preserveAspectRatio="xMidYMid meet">
<metadata>
Created by potrace 1.11, written by Peter Selinger 2001-2013
</metadata>
<g transform="translate(0.000000,663.000000) scale(0.100000,-0.100000)"
fill="#000000" stroke="none">
<path d="M82 4838 l3 -163 173 1 172 1 0 -458 0 -458 205 -3 c177 -3 205 -1
206 12 0 8 1 214 1 458 1 440 1 442 22 447 12 2 88 3 169 2 81 -2 151 0 156 3
4 3 7 76 7 163 l-1 157 -558 0 -557 0 2 -162z"/>
<path d="M1294 4380 l0 -620 203 0 c155 0 203 3 204 13 1 6 2 107 3 222 l1
210 193 1 192 0 0 -223 0 -223 205 0 205 0 0 620 0 620 -205 0 -205 0 0 -240
0 -240 -193 0 -193 0 1 228 c1 125 -1 233 -3 240 -3 9 -53 12 -206 12 l-202 0
0 -620z"/>
<path d="M2679 4993 c0 -5 -1 -282 -2 -618 l0 -610 531 -3 c293 -1 532 1 533
5 0 5 1 74 2 156 l2 147 -326 0 -327 0 -3 43 c-2 23 -2 58 1 77 l5 35 285 0
285 0 0 155 0 155 -282 0 c-155 1 -284 3 -287 5 -4 5 -9 75 -7 123 l1 27 253
0 c138 -1 282 -1 318 -1 l66 1 -1 155 0 155 -523 0 c-288 0 -523 -3 -524 -7z"/>
<path d="M3899 4983 c-1 -23 -1 -1206 0 -1215 1 -5 81 -8 179 -8 l177 0 0 329
c0 181 3 327 6 325 3 -2 28 -61 54 -131 26 -70 62 -166 80 -213 18 -47 41
-109 51 -137 l19 -53 136 0 136 0 88 233 c138 365 123 367 124 -20 l1 -333
178 0 178 0 1 620 0 620 -217 0 -217 0 -128 -307 c-70 -170 -131 -315 -136
-323 -7 -14 -21 10 -43 70 -3 8 -56 137 -119 285 l-113 270 -217 3 c-202 2
-217 1 -218 -15z"/>
<path d="M5488 4993 c-2 -5 -4 -282 -3 -618 l0 -610 533 -3 532 -2 0 155 0
155 -328 0 -328 0 2 73 c1 39 3 74 3 77 1 3 129 5 286 4 157 0 286 2 286 5 1
3 2 74 4 156 l2 150 -291 0 -291 1 0 74 1 75 309 2 c170 1 314 4 320 6 7 3 10
53 9 148 -1 79 -2 147 -3 152 -1 4 -235 7 -520 7 -286 0 -521 -3 -523 -7z"/>
<path d="M34 3321 l1 -246 433 0 c237 0 432 0 432 -2 0 -2 -79 -94 -184 -213
-12 -14 -64 -74 -116 -135 -52 -60 -97 -112 -100 -115 -3 -3 -59 -68 -125
-145 -66 -77 -122 -142 -125 -145 -3 -3 -41 -47 -85 -98 -44 -52 -99 -115
-122 -140 l-43 -47 0 -202 0 -203 888 0 887 0 0 243 0 242 -459 5 -459 5 73
85 c40 47 84 99 99 115 24 27 104 121 171 199 14 16 41 47 61 70 20 23 140
160 266 306 l229 266 -1 199 0 200 -861 1 -861 1 1 -246z"/>
<path d="M1970 2598 l0 -968 320 0 320 0 0 969 0 968 -320 0 -320 0 0 -969z"/>
<path d="M2890 2598 l0 -968 830 0 830 0 0 243 0 244 -507 0 -508 -1 0 120 0
119 430 2 c237 0 439 1 450 2 20 1 20 7 20 239 1 130 -2 239 -6 242 -4 3 -208
5 -453 4 l-446 0 0 118 0 118 498 0 498 0 0 243 -1 242 -817 1 -818 1 0 -969z"/>
<path d="M4799 3561 c-1 -3 -3 -439 -3 -969 l-2 -962 320 2 320 3 1 242 c0
133 3 245 7 249 6 5 124 8 217 5 18 -1 23 -11 114 -211 16 -36 51 -112 78
-168 27 -57 49 -108 49 -113 0 -5 154 -9 365 -9 l365 0 -190 313 -189 312 22
18 c177 145 251 276 275 482 41 361 -105 628 -407 744 -42 16 -101 34 -131 40
-30 6 -68 13 -85 17 -39 8 -1125 14 -1126 5z m1014 -493 c90 -27 146 -131 132
-246 -11 -99 -44 -149 -119 -183 -35 -16 -67 -19 -216 -19 l-176 0 0 230 0
230 169 0 c104 0 185 -5 210 -12z"/>
</g>
</svg>
